# xmcd
#
# Track frame offsets: 
#        150
#        24713
#        49117
#        73174
#        89902
#        117647
#        144221
#        165545
#        188138
#        214267
#        239393
#        272443
#        301314
#
# Disc length: 4399 seconds
#
# Revision: 0
# Processed by: cddbd v1.5.2PL0 Copyright (c) Steve Scherf et al.
# Submitted via: ExactAudioCopyFreeDBPlugin 1.0
#
DISCID=c0112d0d
DTITLE=Quang Dung - Quang Dung 2
DYEAR=1900
DGENRE=
TTITLE0=Chieu ben vang thenh thang
TTITLE1=Trong dang em ngoi
TTITLE2=Khuc mua
TTITLE3=La do muon chieu
TTITLE4=Bien nho
TTITLE5=Khi em thoang qua doi toi
TTITLE6=Xom dem
TTITLE7=Mong duoi hoa
TTITLE8=Co lang gieng 
TTITLE9=Co xot xa dua
TTITLE10=Huong ve Hanoi
TTITLE11=Bong chieu ta
TTITLE12=Ca dao me
EXTD=
EXTT0=
EXTT1=
EXTT2=
EXTT3=
EXTT4=
EXTT5=
EXTT6=
EXTT7=
EXTT8=
EXTT9=
EXTT10=
EXTT11=
EXTT12=
PLAYORDER=
